%
M48
M72
T01C0.0200
T02C0.0320
T03C0.0354
T04C0.0394
T05C0.0400
T06C0.1260
%
T01
X3300Y2600
X2300Y5600
X4800Y8600
X5800Y7850
X7800Y10600
X6800Y11600
X7800Y12600
X4300Y14600
X3800Y11100
X10300Y8350
X11300Y8850
X11550Y7850
X13800Y5350
X13800Y4850
X13300Y3850
X13300Y3100
X17550Y2600
X15300Y8100
X12300Y10600
X11800Y10850
X8300Y2600
X8800Y2350
T02
X10800Y2600
X10800Y1600
X10800Y3600
X10800Y4600
X10800Y6600
X9800Y6600
X8800Y6600
X7800Y6600
X6800Y6600
X5800Y6600
X4800Y6600
X3800Y6600
X2800Y6600
X1800Y6600
X1800Y9600
X2800Y9600
X3800Y9600
X4800Y9600
X5800Y9600
X6800Y9600
X7800Y9600
X8800Y9600
X9800Y9600
X10800Y9600
X11800Y9600
X12800Y9600
X13800Y9600
X14800Y9600
X14550Y11600
X14550Y12600
X14550Y13600
X11550Y13600
X11550Y12600
X11550Y11600
X10300Y12100
X10300Y13100
X11800Y6600
X12800Y6600
X13800Y6600
X14800Y6600
X14800Y4600
X14800Y3600
X14800Y2600
X14800Y1600
T03
X6300Y2600
X5300Y2600
X4300Y2600
X4300Y3600
X5300Y3600
X6300Y3600
X6300Y12600
X5300Y12600
X4300Y12600
X4300Y13600
X5300Y13600
X6300Y13600
T04
X9300Y14100
X9800Y15100
X10800Y15100
X11800Y15100
X9300Y11100
X9300Y4850
X9300Y1850
X1300Y11100
X1300Y12100
X1300Y13100
T05
X16300Y11100
X16300Y10100
X16300Y9100
X16300Y8100
X16300Y7100
X16300Y6100
X16300Y5100
X16300Y4100
X18300Y4100
X18300Y5100
X18300Y6100
X18300Y7100
X18300Y8100
X18300Y9100
X18300Y10100
X18300Y11100
T06
X1300Y1100
X1300Y14850
X18800Y14850
X18800Y1100
M30
