G75*
G70*
%OFA0B0*%
%FSLAX24Y24*%
%IPPOS*%
%LPD*%
%AMOC8*
5,1,8,0,0,1.08239X$1,22.5*
%
%ADD10C,0.0000*%
D10*
X000300Y001100D02*
X000300Y014850D01*
X000302Y014910D01*
X000307Y014971D01*
X000316Y015030D01*
X000329Y015089D01*
X000345Y015148D01*
X000365Y015205D01*
X000388Y015260D01*
X000415Y015315D01*
X000444Y015367D01*
X000477Y015418D01*
X000513Y015467D01*
X000551Y015513D01*
X000593Y015557D01*
X000637Y015599D01*
X000683Y015637D01*
X000732Y015673D01*
X000783Y015706D01*
X000835Y015735D01*
X000890Y015762D01*
X000945Y015785D01*
X001002Y015805D01*
X001061Y015821D01*
X001120Y015834D01*
X001179Y015843D01*
X001240Y015848D01*
X001300Y015850D01*
X018800Y015850D01*
X018860Y015848D01*
X018921Y015843D01*
X018980Y015834D01*
X019039Y015821D01*
X019098Y015805D01*
X019155Y015785D01*
X019210Y015762D01*
X019265Y015735D01*
X019317Y015706D01*
X019368Y015673D01*
X019417Y015637D01*
X019463Y015599D01*
X019507Y015557D01*
X019549Y015513D01*
X019587Y015467D01*
X019623Y015418D01*
X019656Y015367D01*
X019685Y015315D01*
X019712Y015260D01*
X019735Y015205D01*
X019755Y015148D01*
X019771Y015089D01*
X019784Y015030D01*
X019793Y014971D01*
X019798Y014910D01*
X019800Y014850D01*
X019800Y001100D01*
X019798Y001040D01*
X019793Y000979D01*
X019784Y000920D01*
X019771Y000861D01*
X019755Y000802D01*
X019735Y000745D01*
X019712Y000690D01*
X019685Y000635D01*
X019656Y000583D01*
X019623Y000532D01*
X019587Y000483D01*
X019549Y000437D01*
X019507Y000393D01*
X019463Y000351D01*
X019417Y000313D01*
X019368Y000277D01*
X019317Y000244D01*
X019265Y000215D01*
X019210Y000188D01*
X019155Y000165D01*
X019098Y000145D01*
X019039Y000129D01*
X018980Y000116D01*
X018921Y000107D01*
X018860Y000102D01*
X018800Y000100D01*
X001300Y000100D01*
X001240Y000102D01*
X001179Y000107D01*
X001120Y000116D01*
X001061Y000129D01*
X001002Y000145D01*
X000945Y000165D01*
X000890Y000188D01*
X000835Y000215D01*
X000783Y000244D01*
X000732Y000277D01*
X000683Y000313D01*
X000637Y000351D01*
X000593Y000393D01*
X000551Y000437D01*
X000513Y000483D01*
X000477Y000532D01*
X000444Y000583D01*
X000415Y000635D01*
X000388Y000690D01*
X000365Y000745D01*
X000345Y000802D01*
X000329Y000861D01*
X000316Y000920D01*
X000307Y000979D01*
X000302Y001040D01*
X000300Y001100D01*
X000670Y001100D02*
X000672Y001150D01*
X000678Y001200D01*
X000688Y001249D01*
X000702Y001297D01*
X000719Y001344D01*
X000740Y001389D01*
X000765Y001433D01*
X000793Y001474D01*
X000825Y001513D01*
X000859Y001550D01*
X000896Y001584D01*
X000936Y001614D01*
X000978Y001641D01*
X001022Y001665D01*
X001068Y001686D01*
X001115Y001702D01*
X001163Y001715D01*
X001213Y001724D01*
X001262Y001729D01*
X001313Y001730D01*
X001363Y001727D01*
X001412Y001720D01*
X001461Y001709D01*
X001509Y001694D01*
X001555Y001676D01*
X001600Y001654D01*
X001643Y001628D01*
X001684Y001599D01*
X001723Y001567D01*
X001759Y001532D01*
X001791Y001494D01*
X001821Y001454D01*
X001848Y001411D01*
X001871Y001367D01*
X001890Y001321D01*
X001906Y001273D01*
X001918Y001224D01*
X001926Y001175D01*
X001930Y001125D01*
X001930Y001075D01*
X001926Y001025D01*
X001918Y000976D01*
X001906Y000927D01*
X001890Y000879D01*
X001871Y000833D01*
X001848Y000789D01*
X001821Y000746D01*
X001791Y000706D01*
X001759Y000668D01*
X001723Y000633D01*
X001684Y000601D01*
X001643Y000572D01*
X001600Y000546D01*
X001555Y000524D01*
X001509Y000506D01*
X001461Y000491D01*
X001412Y000480D01*
X001363Y000473D01*
X001313Y000470D01*
X001262Y000471D01*
X001213Y000476D01*
X001163Y000485D01*
X001115Y000498D01*
X001068Y000514D01*
X001022Y000535D01*
X000978Y000559D01*
X000936Y000586D01*
X000896Y000616D01*
X000859Y000650D01*
X000825Y000687D01*
X000793Y000726D01*
X000765Y000767D01*
X000740Y000811D01*
X000719Y000856D01*
X000702Y000903D01*
X000688Y000951D01*
X000678Y001000D01*
X000672Y001050D01*
X000670Y001100D01*
X000670Y014850D02*
X000672Y014900D01*
X000678Y014950D01*
X000688Y014999D01*
X000702Y015047D01*
X000719Y015094D01*
X000740Y015139D01*
X000765Y015183D01*
X000793Y015224D01*
X000825Y015263D01*
X000859Y015300D01*
X000896Y015334D01*
X000936Y015364D01*
X000978Y015391D01*
X001022Y015415D01*
X001068Y015436D01*
X001115Y015452D01*
X001163Y015465D01*
X001213Y015474D01*
X001262Y015479D01*
X001313Y015480D01*
X001363Y015477D01*
X001412Y015470D01*
X001461Y015459D01*
X001509Y015444D01*
X001555Y015426D01*
X001600Y015404D01*
X001643Y015378D01*
X001684Y015349D01*
X001723Y015317D01*
X001759Y015282D01*
X001791Y015244D01*
X001821Y015204D01*
X001848Y015161D01*
X001871Y015117D01*
X001890Y015071D01*
X001906Y015023D01*
X001918Y014974D01*
X001926Y014925D01*
X001930Y014875D01*
X001930Y014825D01*
X001926Y014775D01*
X001918Y014726D01*
X001906Y014677D01*
X001890Y014629D01*
X001871Y014583D01*
X001848Y014539D01*
X001821Y014496D01*
X001791Y014456D01*
X001759Y014418D01*
X001723Y014383D01*
X001684Y014351D01*
X001643Y014322D01*
X001600Y014296D01*
X001555Y014274D01*
X001509Y014256D01*
X001461Y014241D01*
X001412Y014230D01*
X001363Y014223D01*
X001313Y014220D01*
X001262Y014221D01*
X001213Y014226D01*
X001163Y014235D01*
X001115Y014248D01*
X001068Y014264D01*
X001022Y014285D01*
X000978Y014309D01*
X000936Y014336D01*
X000896Y014366D01*
X000859Y014400D01*
X000825Y014437D01*
X000793Y014476D01*
X000765Y014517D01*
X000740Y014561D01*
X000719Y014606D01*
X000702Y014653D01*
X000688Y014701D01*
X000678Y014750D01*
X000672Y014800D01*
X000670Y014850D01*
X018170Y014850D02*
X018172Y014900D01*
X018178Y014950D01*
X018188Y014999D01*
X018202Y015047D01*
X018219Y015094D01*
X018240Y015139D01*
X018265Y015183D01*
X018293Y015224D01*
X018325Y015263D01*
X018359Y015300D01*
X018396Y015334D01*
X018436Y015364D01*
X018478Y015391D01*
X018522Y015415D01*
X018568Y015436D01*
X018615Y015452D01*
X018663Y015465D01*
X018713Y015474D01*
X018762Y015479D01*
X018813Y015480D01*
X018863Y015477D01*
X018912Y015470D01*
X018961Y015459D01*
X019009Y015444D01*
X019055Y015426D01*
X019100Y015404D01*
X019143Y015378D01*
X019184Y015349D01*
X019223Y015317D01*
X019259Y015282D01*
X019291Y015244D01*
X019321Y015204D01*
X019348Y015161D01*
X019371Y015117D01*
X019390Y015071D01*
X019406Y015023D01*
X019418Y014974D01*
X019426Y014925D01*
X019430Y014875D01*
X019430Y014825D01*
X019426Y014775D01*
X019418Y014726D01*
X019406Y014677D01*
X019390Y014629D01*
X019371Y014583D01*
X019348Y014539D01*
X019321Y014496D01*
X019291Y014456D01*
X019259Y014418D01*
X019223Y014383D01*
X019184Y014351D01*
X019143Y014322D01*
X019100Y014296D01*
X019055Y014274D01*
X019009Y014256D01*
X018961Y014241D01*
X018912Y014230D01*
X018863Y014223D01*
X018813Y014220D01*
X018762Y014221D01*
X018713Y014226D01*
X018663Y014235D01*
X018615Y014248D01*
X018568Y014264D01*
X018522Y014285D01*
X018478Y014309D01*
X018436Y014336D01*
X018396Y014366D01*
X018359Y014400D01*
X018325Y014437D01*
X018293Y014476D01*
X018265Y014517D01*
X018240Y014561D01*
X018219Y014606D01*
X018202Y014653D01*
X018188Y014701D01*
X018178Y014750D01*
X018172Y014800D01*
X018170Y014850D01*
X018170Y001100D02*
X018172Y001150D01*
X018178Y001200D01*
X018188Y001249D01*
X018202Y001297D01*
X018219Y001344D01*
X018240Y001389D01*
X018265Y001433D01*
X018293Y001474D01*
X018325Y001513D01*
X018359Y001550D01*
X018396Y001584D01*
X018436Y001614D01*
X018478Y001641D01*
X018522Y001665D01*
X018568Y001686D01*
X018615Y001702D01*
X018663Y001715D01*
X018713Y001724D01*
X018762Y001729D01*
X018813Y001730D01*
X018863Y001727D01*
X018912Y001720D01*
X018961Y001709D01*
X019009Y001694D01*
X019055Y001676D01*
X019100Y001654D01*
X019143Y001628D01*
X019184Y001599D01*
X019223Y001567D01*
X019259Y001532D01*
X019291Y001494D01*
X019321Y001454D01*
X019348Y001411D01*
X019371Y001367D01*
X019390Y001321D01*
X019406Y001273D01*
X019418Y001224D01*
X019426Y001175D01*
X019430Y001125D01*
X019430Y001075D01*
X019426Y001025D01*
X019418Y000976D01*
X019406Y000927D01*
X019390Y000879D01*
X019371Y000833D01*
X019348Y000789D01*
X019321Y000746D01*
X019291Y000706D01*
X019259Y000668D01*
X019223Y000633D01*
X019184Y000601D01*
X019143Y000572D01*
X019100Y000546D01*
X019055Y000524D01*
X019009Y000506D01*
X018961Y000491D01*
X018912Y000480D01*
X018863Y000473D01*
X018813Y000470D01*
X018762Y000471D01*
X018713Y000476D01*
X018663Y000485D01*
X018615Y000498D01*
X018568Y000514D01*
X018522Y000535D01*
X018478Y000559D01*
X018436Y000586D01*
X018396Y000616D01*
X018359Y000650D01*
X018325Y000687D01*
X018293Y000726D01*
X018265Y000767D01*
X018240Y000811D01*
X018219Y000856D01*
X018202Y000903D01*
X018188Y000951D01*
X018178Y001000D01*
X018172Y001050D01*
X018170Y001100D01*
M02*
